<svg xmlns="http://www.w3.org/2000/svg" viewBox="0 0 388.77 102.08"><defs><style>.cls-1{fill:#fff;}</style></defs><g id="Layer_2" data-name="Layer 2"><g id="Laag_1" data-name="Laag 1"><path class="cls-1" d="M32.18,51.81c-1.11,0-2.22.37-3.33.37s-2.06-.29-3.17-.29c-3,0-6.14.15-9.24.15-4.66,0-9.39.29-14.12.29-1.11,0-1.85-.44-1.85-1.62s.3-2.15.3-3.26-.3-2.21-.3-3.32c0-.59.37-1.11.37-1.63,0-2.73-.15-5.47-.15-8.2C.69,29.12.4,24,.4,18.85c0-1.41.15-2.81.15-4.29C.55,12.12,0,9.68,0,7.24,0,4-.56.67,3.65.67,5.05.67,6.46.44,7.86.44H19.69c1.77,0,3.55-.22,5.25-.22,1,0,2.07.22,3.1.22h3.7c1.11,0,1.47.37,1.47,1.48,0,.74-.14,1.48-.14,2.22,0,3.62-1.26,3.4-4.44,3.4-3.92,0-7.83-.22-11.75-.22a45.67,45.67,0,0,0-7.1.37c-.66.07-.73.15-.73.81-.15,1.92-.15,3.84-.3,5.84h.07c0,.89-.29,4.58.67,4.58,5.91,0,12-.51,17.89-.51,1.1,0,2.36,0,3.1.88a22.62,22.62,0,0,1,.22,3.92A3,3,0,0,1,30.26,25c-.52,1-8,.67-9.39.67-3.4,0-6.87.22-10.27.29-1.11.08-1.48.23-1.48,1.33,0,2.15.15,4.22.15,6.29,0,2.58-.3,5.24-.3,7.83,0,.89-.37,3.55.67,3.55,1.25,0,2.58-.15,3.84-.15,1,0,2.07.15,3.11.15,5,0,10.05-.52,15.07-.52,2.74,0,3.11.89,3.11,3.55C34.77,50.34,34.77,51.81,32.18,51.81Z"/><path class="cls-1" d="M81,51.81c-1.11,0-2.22.37-3.32.37s-2.07-.29-3.18-.29c-3,0-6.14.15-9.24.15-4.66,0-9.39.29-14.12.29-1.11,0-1.85-.44-1.85-1.62s.3-2.15.3-3.26-.3-2.21-.3-3.32c0-.59.37-1.11.37-1.63,0-2.73-.14-5.47-.14-8.2,0-5.18-.3-10.35-.3-15.45,0-1.41.15-2.81.15-4.29,0-2.44-.52-4.88-.52-7.32C48.88,4,48.29.67,52.5.67c1.41,0,2.81-.23,4.21-.23H68.54c1.77,0,3.55-.22,5.25-.22,1,0,2.07.22,3.1.22h3.7c1.11,0,1.48.37,1.48,1.48,0,.74-.15,1.48-.15,2.22,0,3.62-1.26,3.4-4.44,3.4-3.91,0-7.83-.22-11.75-.22a45.54,45.54,0,0,0-7.09.37c-.67.07-.74.15-.74.81-.15,1.92-.15,3.84-.3,5.84h.08c0,.89-.3,4.58.66,4.58,5.91,0,12-.51,17.89-.51,1.11,0,2.36,0,3.1.88a22.62,22.62,0,0,1,.22,3.92A3,3,0,0,1,79.11,25c-.52,1-8,.67-9.39.67-3.4,0-6.87.22-10.27.29C58.34,26,58,26.17,58,27.27c0,2.15.15,4.22.15,6.29,0,2.58-.3,5.24-.3,7.83,0,.89-.37,3.55.67,3.55,1.26,0,2.59-.15,3.84-.15,1,0,2.07.15,3.11.15,5,0,10-.52,15.07-.52,2.74,0,3.11.89,3.11,3.55C83.62,50.34,83.62,51.81,81,51.81Z"/><path class="cls-1" d="M137.31,26.17a53.57,53.57,0,0,0,0,6.94c0,3,.07,5.84.07,8.73s.15,6.35-.74,9.16A1.53,1.53,0,0,1,135,52.18a50.68,50.68,0,0,1-5.77-.29A3.75,3.75,0,0,1,126,49.67c-1-2.07-1.77-2-2.29-2.81a52.67,52.67,0,0,0-4-5.62c-2.14-2.66-3.92-5.69-5.92-8.42-.81-1.18-1.77-2.29-2.66-3.48-1.84-2.58-3.54-5.32-5.47-7.9l-.22.14a4.65,4.65,0,0,0-.15,1c0,3.62.23,7.32.23,10.94,0,1.18-.37,2.44-.37,3.62,0,3,.51,6.13.51,9.16,0,3.85.74,6-4,6a17.61,17.61,0,0,1-2.8-.22,1.4,1.4,0,0,1-1.48-1.63c-.23-2.95-.3-6-.3-9,0-4.51.22-9,.22-13.46s-.52-8.87-.52-13.23c0-.88.15-1.77.15-2.58,0-2.81-.29-5.62-.29-8.36,0-2.07.51-3,2.66-3,1.25,0,4.06-.14,4.8,1,1.48,2.3,2.81,4.59,4.29,6.88.37.59.89,1.11,1.33,1.7,2.22,2.73,7.69,10.57,9.09,13.45.81,1.77,8.28,11.9,9.61,12.71a3.13,3.13,0,0,0,.07-.81c0-2.51-.14-5-.14-7.46,0-1,.14-1.93.14-3V20.4c0-2.29-.37-4.66-.37-7,0-.59.23-1.11.23-1.7s-.23-1.11-.23-1.63a80.55,80.55,0,0,1,.37-8.35c.15-1.33,1.93-1.63,3-1.63.73,0,1.4.23,2.14.23s1.25-.3,1.92-.3A1.35,1.35,0,0,1,137,1.11a81,81,0,0,1,.45,8.57c.07,1.85.29,3.7.29,5.55A108.27,108.27,0,0,1,137.31,26.17Z"/><path class="cls-1" d="M286.86,42c-1.18,2.44-3.25,3.33-5.1,5.1a3.79,3.79,0,0,1-1.63,1.41,20.24,20.24,0,0,0-2.44,1.4c-2.14,1.33-8.35,2.37-10.79,2.22v.07h-.22c-.89,0-1.92-.22-2.88-.29a3,3,0,0,1-1.19.15,14.64,14.64,0,0,1-4.13-.67c-2.67-.59-5.55-.89-7.69-2.66a8.92,8.92,0,0,0-1.11-.74A9.79,9.79,0,0,1,247,45.68a16.62,16.62,0,0,0-1.7-1.55c-3.48-3.33-5.54-9-6.21-13.6a24.81,24.81,0,0,1-.59-3.26c0-8.57,4.51-17.51,12-22C256.33,1.7,260,0,266.75,0a14.28,14.28,0,0,1,4.36.67h.23c1.18,0,2.36,1,3.47,1.25.89.22,1.4.82,2.14,1a13,13,0,0,1,5.25,3.1L285,9.46l.22.3c2.81,3.54,6.58,9.75,6.58,14.34C291.81,33.78,290.92,33.78,286.86,42ZM277.47,13.6c-.44-.3-.52-1.18-1.11-1.55a35,35,0,0,0-5.17-2.74,12.27,12.27,0,0,0-5.1-1,16.25,16.25,0,0,0-10.94,3.55,24.32,24.32,0,0,0-3.62,3.7c0,.07,0,.07-.08.07-.66.3-.74,1.33-1,1.85-1.55,2.88-2.66,4.06-2.81,7.61-.07,1-.07,2.07-.07,3,0,3.4,2.36,8,4.51,10.5.73.88,2.29,1.7,3.25,2.58,1.25,1.11,10.05,2.44,12.12,2.44a29.16,29.16,0,0,0,5.54-1c.67-.15,1-.22,1.18-.89s1.48-.74,1.93-1.11a12.85,12.85,0,0,0,3.69-3.55c.22-.51.74-1,.67-1.55.66-1.62,2.51-3.55,2.51-5.47C282.94,25.43,281.54,16.56,277.47,13.6Z"/><path class="cls-1" d="M336,23.58v7.54a41.62,41.62,0,0,1-.37,4.29c-.22,1.92-.07,4.65-.89,6.43l-.15.29-1.25,3c-.89,2.37-3.4,3.84-5.32,5.1a7.73,7.73,0,0,1-3.55,1.33c-1.48.08-2.74.59-4.21.59-9.32,0-13.6-5-15.38-13.52-.59-2.89-.29-6.88-.37-9.91-.07-5.76-.29-11.53-.29-17.22,0-2.59-.37-5.1-.37-7.61,0-3.7.37-3.4,3.84-3.4a11.67,11.67,0,0,1,3.62.22,1,1,0,0,1,.74,1c.3,3.7.52,7.4.52,11.17,0,1.25-.15,2.43-.15,3.69,0,.74.22,1.48.22,2.14s-.22,1.41-.22,2.15c0,3.32.22,6.65.22,10,0,5.69.59,13.15,7.91,13.15a13.09,13.09,0,0,0,3.84-.74,3.08,3.08,0,0,0,1.11-1.1c2.66-5.92,2.44-9.69,2.44-16,0-4.73-.52-9.53-.52-14.27,0-2.36-.22-9,.45-10.86.37-1,2.14-.89,3-.89,6.21,0,4.51,1.78,4.51,6.73a9.39,9.39,0,0,0,.29,2.51c.37,1.33.37,8.65.37,10.5C336.07,21.14,336,22.32,336,23.58Z"/><path class="cls-1" d="M383.74,41.61c-.74,1.11-7.76,6.36-9,7-4.36,2.43-11.08,3.4-16,3.4-.37,0-.82-.23-1.26-.23-.67,0-1.33.15-2,.15a11.39,11.39,0,0,1-3.18-.59c-1.47-.52-1.1-2.88-1.1-4.14,0-1,.29-1.92.29-2.88,0-2.88-.15-5.69-.15-8.58,0-1.1-.29-2.14-.29-3.17,0-1.48.22-3,.22-4.44,0-3.55-.37-7-.37-10.57,0-2.81.15-5.76.3-8.57,0-1.33-.15-2.66-.15-4,0-3.55.29-4.66,4.21-4.59h4.58a31.54,31.54,0,0,1,22.92,9.69,14.07,14.07,0,0,1,1.84,2.66A27.49,27.49,0,0,1,388.77,28C388.77,32.82,386.4,37.7,383.74,41.61ZM379.6,24.39a17.43,17.43,0,0,0-1.33-5.17c-3.4-6.36-9.61-10.94-17-10.79l-1,.07c-.82,0-.89.15-1,.89v4.95c0,2.07.29,4.07.37,6.13.14,3.33.07,6.66.14,10,0,1.19.15,2.44.15,3.7s-.22,2.73-.22,4.06.15,3,.22,4.51c.08,1,.22,1.11,1.19,1.11h2.43c3.63,0,10.35-3.69,12.57-6.5,1.92-2.52,4-6.21,4-9.39A14.51,14.51,0,0,0,379.6,24.39Z"/><path class="cls-1" d="M187.9,46.12a18.32,18.32,0,0,1-3.06,2.74c-4.51,2.6-9.58,2.42-14.47,2.09a65.59,65.59,0,0,0-8.66.25,69,69,0,0,0-7.53,1.09,24.64,24.64,0,0,0-5.39,1.18c-2.27,1-4.29,2.49-6.52,3.53-2.71,1.26-3.77,3.8-5.11,6.12a1.59,1.59,0,0,0,.55,2.4c.74.37,1.51,0,2.09-1.09a16.89,16.89,0,0,1,7.64-7.17,4,4,0,0,1,1.32-.15c-.14.4-.26.81-.42,1.2-.05.13-.18.21-.25.34-.84,1.71-1.74,3.41-2.51,5.16a1.31,1.31,0,0,0,.65,1.78,1.38,1.38,0,0,0,1.92-.58,8.33,8.33,0,0,0,.62-1.23c1.92-3.71,4.16-7,8.42-8.46A22.89,22.89,0,0,1,167.11,54,25.8,25.8,0,0,0,170,54l9.14,0a1.35,1.35,0,0,1,.49.19,2,2,0,0,1-.25.57A16.19,16.19,0,0,1,177,57a60.48,60.48,0,0,1-7.65,4.65c-3.75,1.72-7.71,2.8-11.73.51a1.34,1.34,0,0,0-1.93.53,1.39,1.39,0,0,0,.55,2,12,12,0,0,0,9.26,1.35,4,4,0,0,1,.89.09,3.56,3.56,0,0,1-.28.73c-1.64,2.47-3.26,5-5,7.39a66.74,66.74,0,0,1-9,10.4c-1,.94-1.11,1.77-.4,2.52s1.55.52,2.44-.31c.45-.41.84-.87,1.28-1.27a3.57,3.57,0,0,1,.68-.4,2.66,2.66,0,0,1,.14.76c-.14,1-.34,2.1-.51,3.15-.21,1.31.23,2.08,1.27,2.2s1.57-.51,1.69-1.78a27.93,27.93,0,0,1,2.44-8.64,65.56,65.56,0,0,1,8.4-13.56,31.62,31.62,0,0,1,3.73-4.26,32.18,32.18,0,0,1,4.39-2.92,4.08,4.08,0,0,1,.86-.35,5.06,5.06,0,0,1,0,1c-.78,4.09-1.69,8.16-2.36,12.28a94.57,94.57,0,0,1-4.38,18.34c-.63,1.68-1.47,3.29-2.22,4.93a1.77,1.77,0,0,0,.46,2.33c.82.41,1.61.08,2.16-.9a2.64,2.64,0,0,0,.18-.38c1.09-2.61,2.17-5.21,3.27-7.81a4.58,4.58,0,0,1,.5-.74,9,9,0,0,1,.51.75c.53,1,1,2,1.57,2.93a1.54,1.54,0,0,0,2.21.48,1.44,1.44,0,0,0,.21-2.2,11.42,11.42,0,0,1-2-6.13,60.28,60.28,0,0,1,1.12-15.63,2.58,2.58,0,0,1,.46-.74,5.1,5.1,0,0,1,.48.76c1.11,2.54,2,5.2,3.35,7.6s3.09,4.26,4.57,6.44a31.92,31.92,0,0,1,4.74,12.52c.3,1.69.5,3.4.78,5.09a1.35,1.35,0,0,0,1.53,1.28,1.42,1.42,0,0,0,1.34-1.64,5.43,5.43,0,0,0-.09-.69c-.57-3-1-6.14-1.74-9.14a28.3,28.3,0,0,0-5-10.32,50.57,50.57,0,0,1-4-5.52c-3.14-5.53-4.88-11.29-2.29-17.61,1-2.51,2.11-4.91,4.33-6.63a7.37,7.37,0,0,0,1.81-2.08c.55-.92,1.05-1.07,1.81-.32.22.23.49.42.7.67,2.87,3.38,3.86,7.4,3.91,11.72,0,2.31-.09,4.63-.17,6.95a73,73,0,0,0,1.94,17.24,23.77,23.77,0,0,0,3.36,8.19A15.35,15.35,0,0,0,208.56,99a2.35,2.35,0,0,0,1.56.2c.43-.17,1-.85.93-1.19A2.5,2.5,0,0,0,210,96.44a15.84,15.84,0,0,1-7.49-8.61,3.36,3.36,0,0,1-.08-.91,7.86,7.86,0,0,1,.84.36c1.67,1,3.32,2,5,2.94a2.82,2.82,0,0,0,1.58.41,1.72,1.72,0,0,0,1.27-.76,2.25,2.25,0,0,0-.32-1.61c-.2-.34-.75-.49-1.17-.67-4.54-2-8.07-5-9.34-10a35.52,35.52,0,0,1-.89-7.57c-.15-4.44-.07-8.89-.07-13.34a2.45,2.45,0,0,1,.21-.72,3.59,3.59,0,0,1,.63.45,39.14,39.14,0,0,1,6.35,8.9c2.05,4.23,3.74,8.57,1.18,13.26a1.29,1.29,0,0,0,.61,1.89,2.3,2.3,0,0,0,1.85-.42,3.92,3.92,0,0,0,1-1.67,13.43,13.43,0,0,0,.49-7.66,3.13,3.13,0,0,1,.09-.9,3.89,3.89,0,0,1,.85.3c2.69,1.8,5.39,3.6,8.06,5.44a62.81,62.81,0,0,1,9.71,8.5c.93,1,1.74,1,2.52.25.56-.57.43-1.48-.35-2.34-.48-.51-1-1-1.47-1.48a3.12,3.12,0,0,1-.32-.57,2.85,2.85,0,0,1,.74-.12c1.05.16,2.1.36,3.15.54,1.32.24,2.1-.16,2.27-1.17s-.37-1.67-1.78-1.8a30.76,30.76,0,0,1-11.27-3.71A84.08,84.08,0,0,1,211,65.1a13.64,13.64,0,0,1-2.46-2.4c-1.06-1.4-2-2.93-2.91-4.41a7.12,7.12,0,0,1-.42-.93,4.6,4.6,0,0,1,1,0c2.56.6,5.1,1.33,7.68,1.83,4.73.9,9.51,1.56,14.23,2.52a50.18,50.18,0,0,1,13.12,4.44c.45.23.94.6,1.38.56a2.18,2.18,0,0,0,1.57-.75c.2-.42-.13-1.17-.36-1.71-.1-.24-.5-.39-.8-.51-2.55-1.09-5.12-2.16-7.67-3.24-.32-.14-.62-.34-.93-.51.33-.21.64-.45,1-.64.85-.48,1.73-.88,2.55-1.4a1.61,1.61,0,0,0,.59-2.29,1.44,1.44,0,0,0-2.11-.23c-3.05,2.07-6.52,2.35-10,2.13-3.92-.24-7.83-.78-11.74-1.2a5.24,5.24,0,0,1-1-.32,5.06,5.06,0,0,1,.91-.67,73.2,73.2,0,0,0,7.15-2.9,51.53,51.53,0,0,0,5.62-4,22.6,22.6,0,0,1,3.16-2.23,33.61,33.61,0,0,1,5.91-2.33c5.81-1.12.67-3.4-.49-2.93s-4.23,1.19-6.09,2.25c-2.7,1.55-5.16,3.52-7.74,5.28a20.4,20.4,0,0,1-3.39,2.12A57.91,57.91,0,0,1,213,52.55a15.84,15.84,0,0,1-13.1-1.6,19.72,19.72,0,0,1-3-2.18c-1-.84-1.76-1.9-2.74-2.73"/><path class="cls-1" d="M180.24,51.42h-1.09a8.92,8.92,0,0,1-4-.74l-.79-.36c-.69-.31-1.38-.62-2.06-1l-.52-.26a15.34,15.34,0,0,1-2.56-1.54,8.29,8.29,0,0,1-.92-.86A5.59,5.59,0,0,1,167,46a5.1,5.1,0,0,1-1.08-1l-.35-.26a8.82,8.82,0,0,1-1.23-1.22l-.19-.21-.13-.08a8.37,8.37,0,0,1-1.77-1.68,6.67,6.67,0,0,1-.67-1.12l0,0a8,8,0,0,1-1.9-2.25l-.31-.57a31.08,31.08,0,0,1-2.47-5.31l-.6-1.82c-.42-1.24-.83-2.47-1.22-3.71-.28-.88-.51-1.76-.73-2.64-.17-.66-.34-1.32-.55-2s-.31-1.2-.43-1.81c-.07-.3-.12-.6-.2-.89a5.37,5.37,0,0,1-.21-1.32,4.75,4.75,0,0,1-.24-.86l-.18-1c-.2-1.06-.39-2.12-.62-3.18-.15-.66-.3-1.3-.45-1.93-.24-1-.48-2-.69-3.06l-.1-.52c-.24-1.15-1.34-5.37-.66-5.91a4.91,4.91,0,0,1,2.5-.21,28.29,28.29,0,0,0,4.83-.11c1.6,0,1.5,1.06,1.5,1.06a23.31,23.31,0,0,0,.5,3.38l.12.57c.18.93.4,1.84.62,2.75.16.69.32,1.38.47,2.07.26,1.16.47,2.33.69,3.49l.11.62a5.9,5.9,0,0,1,.33,1.1,7,7,0,0,1,.1,1c.09.37.17.75.25,1.12s.13.68.23,1c.24.78.45,1.57.65,2.36s.37,1.45.61,2.18c.37,1.2.77,2.38,1.16,3.57l.62,1.85a24.1,24.1,0,0,0,1.83,3.85l.17.31.1.09a8.74,8.74,0,0,1,1.46,1.53,6.26,6.26,0,0,1,.54.9c.16.12.32.24.47.37A9,9,0,0,1,171,37.69l.11.12a7.41,7.41,0,0,1,.87.66,2.44,2.44,0,0,1,.23.22,5.68,5.68,0,0,1,1,.59,8.06,8.06,0,0,1,1.3,1.16l.18.18a10.78,10.78,0,0,0,1,.55l.67.34c.5.27,1,.49,1.51.71l.74.34h1.18a7.12,7.12,0,0,0,.86,0A19.34,19.34,0,0,0,185,40.1c.45-.34.89-.72,1.33-1.09l.74-.63c.13-.1.22-.19.28-.24A8.83,8.83,0,0,1,188,37a17.64,17.64,0,0,0,2.15-3.92,15.29,15.29,0,0,1,.78-1.57,5.64,5.64,0,0,0,.36-.69c.22-.58.49-1.17.76-1.75.12-.27.25-.54.36-.8l.4-.9a20.62,20.62,0,0,0,1.26-3.23c.27-1,.55-2.08.84-3.12,0-.08,0-.24,0-.39a10.7,10.7,0,0,1,.22-1.95c0-.15,0-.36,0-.57a11.78,11.78,0,0,1,.12-2.41c.07-.39.12-.79.18-1.18s.14-1,.23-1.51a7.6,7.6,0,0,0,0-1.3A14,14,0,0,1,196,8.11c0-.11,0-.36,0-.61,0-.42,0-.83,0-1.22,0-1.14.23-1.91.23-3.3,0-.91,1.59-.75,1.59-.75s1,0,2.11,0c.93,0,1.56,0,1.56,0h1.74S205,2,205,2.57c0,.8-.23,2.95-.24,3.88,0,.19,0,.4,0,.61a10.88,10.88,0,0,1-.19,3.11,6.74,6.74,0,0,0,0,1.33,15.06,15.06,0,0,1-.16,3c-.07.41-.12.81-.18,1.21s-.14,1-.22,1.47a4.32,4.32,0,0,0,0,.62,11,11,0,0,1-.19,2.77c0,.13,0,.28,0,.43a9.49,9.49,0,0,1-.33,2.38c-.27,1-.54,1.93-.78,2.9A29.91,29.91,0,0,1,200.9,31l-.37.83-.44,1c-.19.41-.39.82-.55,1.24a14.16,14.16,0,0,1-.87,1.78,6.65,6.65,0,0,0-.34.65,26.62,26.62,0,0,1-3.14,5.72,8,8,0,0,1-.95,1.48,11,11,0,0,1-1.57,1.54l-.65.55c-.57.48-1.14,1-1.72,1.4a27.53,27.53,0,0,1-6.43,3.65A9.56,9.56,0,0,1,180.24,51.42Zm14.87-9.12h0Zm-27.69-8.39h0Z"/><path class="cls-1" d="M203.72,51.67a11.53,11.53,0,0,1-2.51-.24l-.77-.15a21.92,21.92,0,0,1-5.78-1.78A22.57,22.57,0,0,1,190,46.06c-.44-.4-.89-.79-1.34-1.16a16.38,16.38,0,0,1-3.34-4c-.3-.46-.6-.93-.94-1.36a11.76,11.76,0,0,1-1.62-3c-.07-.19-.15-.37-.22-.54s-.22-.45-.34-.67c-.21-.4-.42-.79-.6-1.21a40.64,40.64,0,0,1-1.68-4.67l-.38-1.19c0-.12-.19-.42-.31-.66a11.74,11.74,0,0,1-.87-2c-.09-.31-.2-.61-.3-.92s-.26-.75-.38-1.13l-.31-1a41.63,41.63,0,0,1-1.16-4.08c-.35-1.59-.61-3.13-.89-4.84-.05-.33-.13-.66-.21-1s-.17-.75-.24-1.12-.15-.87-.22-1.32c0-.3-.08-.61-.14-.91A51,51,0,0,1,174,3.13c0-.95,2.3-.95,2.3-.95a22.66,22.66,0,0,0,2.72.48c1.1.07,3.82-.59,3.83.47s.2,4,.27,4.38.17,1,.24,1.43c0,.29.08.59.14.88s.11.52.17.78c.13.53.25,1.06.33,1.59.27,1.63.5,3,.8,4.37.22,1,.57,2.12.94,3.27l.34,1.06c.09.31.2.61.3.92s.26.77.38,1.15c0,.12.2.43.31.65a12.91,12.91,0,0,1,.83,1.92l.4,1.28a35.45,35.45,0,0,0,1.32,3.71,6.82,6.82,0,0,0,.34.66c.22.42.44.84.63,1.27q.18.4.33.81a8,8,0,0,0,.38.86c.52.66,1,1.34,1.36,2a9.35,9.35,0,0,0,1.5,1.94c.56.45,1.11.93,1.65,1.42a15.77,15.77,0,0,0,2.83,2.17,14.43,14.43,0,0,0,3.54,1l.84.17a6.6,6.6,0,0,0,1,0l.27-.07a7.13,7.13,0,0,1,1.93-.19l.64-.3.76-.36a7.24,7.24,0,0,0,1.54-1c.38-.29.76-.54,1.13-.79a6.68,6.68,0,0,0,.78-.57,15.25,15.25,0,0,0,1.52-1.71c0-.07.16-.39.25-.63a14.24,14.24,0,0,1,.78-1.74,4.43,4.43,0,0,0,.3-.62,9,9,0,0,1,.86-1.8,3.07,3.07,0,0,0,.17-.31,11.88,11.88,0,0,0,.63-1.89,22.66,22.66,0,0,1,.82-2.57,13.67,13.67,0,0,0,.55-1.5c.14-.52.3-1,.46-1.55s.3-1,.42-1.44.32-1.15.5-1.7a10.45,10.45,0,0,0,.32-1.09l.23-1c.15-.66.31-1.31.42-2l.12-.67A22.43,22.43,0,0,1,219.9,15a9.18,9.18,0,0,0,.28-1.71,14.57,14.57,0,0,1,.33-2.44,6.48,6.48,0,0,0,.16-.93c0-.44,0-1,0-1.55,0-.4,0-.79,0-1.18V5.09a6.65,6.65,0,0,0-.08-.78,14.35,14.35,0,0,1,.11-1.85c0-1.14,1.44-.7,2.83-.65,1,0,1.58.28,2.56.36l2.34.18c1.14,0,.89.47.94.77a14.83,14.83,0,0,1,.16,2V7.2c0,.3,0,.61,0,.93,0,.73,0,1.55,0,2.43a15.41,15.41,0,0,1-.32,2.07,7.27,7.27,0,0,0-.16,1,17.37,17.37,0,0,1-.58,3.72,13.36,13.36,0,0,0-.29,1.52l-.14.79c-.14.82-.33,1.63-.52,2.45l-.2.89c-.15.66-.35,1.28-.55,1.91-.11.33-.23.67-.31,1-.17.68-.37,1.35-.58,2-.12.39-.24.78-.35,1.18a20.1,20.1,0,0,1-.9,2.55c-.18.44-.33,1-.5,1.6a18.32,18.32,0,0,1-1.21,3.44c-.15.31-.32.6-.48.89a2.54,2.54,0,0,0-.16.28,12.33,12.33,0,0,1-.88,1.94,4.06,4.06,0,0,0-.27.65A11.38,11.38,0,0,1,219.8,43a22.3,22.3,0,0,1-2.45,2.81,13.05,13.05,0,0,1-2.16,1.71c-.21.14-.43.28-.64.44a16.52,16.52,0,0,1-3.32,2l-.51.24a12.09,12.09,0,0,1-2.85,1.05,7.85,7.85,0,0,1-1.71.14,6.87,6.87,0,0,1-1.67.25Z"/></g></g></svg>