<svg id="Laag_1" data-name="Laag 1" xmlns="http://www.w3.org/2000/svg" viewBox="0 0 211.55 198.51"><defs><style>.cls-1{fill:#9b852e;}</style></defs><path class="cls-1" d="M193.32,159.28l-.84,0a2.2,2.2,0,0,0-.32-.21c-1-.12-1.95-.71-2.94-.05-.45.66,0,1.09.4,1.49.81.82,1.62,1.63,2.46,2.41,1.8,1.65,1.93,3.37.47,5.12-1.57,1.11-2.19,1.12-3.69,0-2.29-1.74-4.09-4-6.18-5.93-.41-.43-.85-.84-1.22-1.31l0,0a89,89,0,0,0-7-6.15c-4.44-3.65-9.32-6.68-14-10-2.55-1.5-4.87-3.35-7.4-4.88-.51-.3-1.1-.82-1.7-.43s-.55,1.25-.42,2a25.68,25.68,0,0,1-1.31,15.44,2.64,2.64,0,0,0-.11.56c-.76,1.76-1.93,2.93-4,2.92a2.09,2.09,0,0,1-2.06-1,4.53,4.53,0,0,1-.18-2.42c.29-1.08,1-2,1.34-3,0-.13,0-.26.05-.4.13-.5.32-1,.46-1.48.05-.13.11-.25.17-.37a5.53,5.53,0,0,1,.43-2,23.24,23.24,0,0,0-1-10.34,7.8,7.8,0,0,1-.6-1.19,14.86,14.86,0,0,0-.94-2.51,9,9,0,0,0-1.11-2.65c-.39-1-.95-1.84-1.28-2.83-1.25-3.31-3.39-6.1-5.36-9-1.65-2.41-3.66-4.54-5.47-6.82a7.63,7.63,0,0,0-2-2.1c-.6-.34-1.09-.38-1.19.49a5.27,5.27,0,0,1-.14.69,5.56,5.56,0,0,0-.17,1.57c0,6.69,0,13.37.17,20a3.06,3.06,0,0,0,.12.85c0,2.24,0,4.49.17,6.72a23.79,23.79,0,0,0,.23,3.77c.24,1.09.29,2.21.45,3.31a38.46,38.46,0,0,0,1.66,6.77,37.93,37.93,0,0,0,4.41,8.11c.39,1.23,1.57,1.79,2.32,2.72a28.25,28.25,0,0,0,7.4,5.22h0a32.22,32.22,0,0,0,4.7,2.44c1.3.64,2.31,2.6,1.86,3.73s-2.31,1.84-3.84,1.35a17.92,17.92,0,0,1-3.61-1.74c-2.37-1.42-4.76-2.82-7.14-4.22-.72-.53-1.51-1.41-2.36-.69s0,1.61.29,2.37a32.19,32.19,0,0,0,8.67,12.29,24.79,24.79,0,0,0,5.16,3.58,4.88,4.88,0,0,1,1.92,1.47c1,1.59,1,2.19-.09,3.43a3.32,3.32,0,0,1-3.38.34,24.74,24.74,0,0,1-7.95-5.15c-2.27-1.56-3.69-3.87-5.27-6a51.71,51.71,0,0,1-5.86-11.41,6.72,6.72,0,0,1-.19-.84c-.06-.12-.11-.25-.17-.37-.19-.58-.33-1.17-.47-1.77,0-.14,0-.28,0-.43-.9-3.48-1.47-7-2.25-10.52a4.32,4.32,0,0,0-.11-.72c-.7-4-1.13-7.94-1.69-11.92a17.22,17.22,0,0,1-.12-2.15c-.08-2.4-.37-4.81-.29-7.18.1-2.82.17-5.66.21-8.48.09-5.61.46-11.24-.54-16.82-.14-.8-.42-1.58-.52-2.38a3.55,3.55,0,0,0-.09-.47,11.88,11.88,0,0,0-1.13-3.44,7.56,7.56,0,0,1-.6-1.29,4,4,0,0,0-1-1.92c-.41-.77-.88-1.51-1.23-2.31A12.68,12.68,0,0,0,112,95.91c-1.12-.76-2.07-.77-2.76.33-1.78,2.86-4.54,4.77-6.71,7.24a25.33,25.33,0,0,0-4.28,6.72,37.25,37.25,0,0,0-1.56,3.54,28.83,28.83,0,0,0-1.69,5.9,5,5,0,0,0-.48,1.72,18.32,18.32,0,0,0-.1,2.34,14,14,0,0,0,0,5.84,14.6,14.6,0,0,1,0,1.62,6.62,6.62,0,0,1,.2,1.08,4,4,0,0,0,.35,1.4,4.24,4.24,0,0,0,.13,1,7,7,0,0,0,.46,1.36c0,.88.7,1.53.75,2.38a15,15,0,0,0,1.39,3.34,4.18,4.18,0,0,1,.58,1.27,3.81,3.81,0,0,0,.51,1.27,88.25,88.25,0,0,0,4.61,7.86c2,2.73,4.07,5.38,6.08,8.09a1.09,1.09,0,0,1,.24.51c1.78,3,3.92,5.77,5.26,9,.56,1.37,1.26,2.67,1.82,4a61.13,61.13,0,0,1,3.4,12.46c.52,4,1.38,7.86,2,11.81a5.4,5.4,0,0,1-.22,3.21,1.58,1.58,0,0,1-.81.84c-1,.53-2.11.84-3.17,0a2.82,2.82,0,0,1-1.19-2.19c-.45-3.5-1-7-1.66-10.45a59.71,59.71,0,0,0-3-11.15,20.72,20.72,0,0,0-1.91-4.94,28.16,28.16,0,0,1-1.67-3.11c-1.37-3.16-3.56-5.81-5.47-8.63-1.43-2.2-3.23-4.13-4.63-6.35A13.58,13.58,0,0,1,97,152.84c-1.93-3.66-3.4-7.53-5.18-11.26-.14-.24-.22-.5-.35-.74a8.51,8.51,0,0,0-.71-2c-.07-.11-.12-.22-.18-.33a9.71,9.71,0,0,0-.41-1,1.74,1.74,0,0,1-.13-.36c-.48-.69-1-1.29-1.39,0a5.56,5.56,0,0,0-.38,1.13,23.44,23.44,0,0,0-.41,2.51,3.39,3.39,0,0,1-.15.45c-.71,4.49-1.28,9-1.65,13.53a79.38,79.38,0,0,0,0,13.79,24,24,0,0,0,2.16,8.86c.77,1.14,1.41,2.37,2.14,3.54,1,1.69.77,2.7-.78,4.14a3.17,3.17,0,0,1-3.22.06.68.68,0,0,1-.35-.22,15.12,15.12,0,0,0-.89-1.36,25.4,25.4,0,0,1-2.33-4.17c-.15-.4-.14-.86-.47-1.19a1.77,1.77,0,0,1-.19-.33c-.85-1.27-.94-1.27-1.77,0a1.69,1.69,0,0,1-.19.32c-.33.31-.33.76-.45,1.15-.05.11-.11.22-.17.33a6.25,6.25,0,0,0-.41,1.22c0,.75-.67,1.28-.68,2-.56.6-.6,1.44-1,2.1a8,8,0,0,0-.74,1.53c-.06.18-.09.37-.16.55s-.1.24-.16.36a15,15,0,0,0-1,2.57c-.36,1.3-1.06,2.46-1.54,3.71a4.37,4.37,0,0,1-1.27,1.85c-1.65,1.49-3.29,1.21-4.43-.76-.52-1.66.14-3.11.85-4.52a84.33,84.33,0,0,0,5.6-13.56,16.15,16.15,0,0,0,.77-2.74c0-.14,0-.28,0-.42a8.28,8.28,0,0,0,.48-1.82,3.65,3.65,0,0,1,.18-.41c1.3-4.33,2.14-8.78,3.11-13.19.23-2,1-3.94,1.13-6a1.59,1.59,0,0,1,.07-.48c.93-5.93,2.2-11.8,3-17.74.73-3.7,1.38-7.42,2.25-11.08a4.68,4.68,0,0,0,.46-1.94c.08-1.25-.25-1.49-1.38-1.06a2.11,2.11,0,0,0-.63.33c-2.62,1.84-5.57,3.16-8,5.28-.87.76-1.63,1.63-2.5,2.38a10.39,10.39,0,0,0-2.52,3c-2,2.51-3.87,5-5.83,7.53A117.56,117.56,0,0,0,54,156.25a78.11,78.11,0,0,0-6.1,15.8c-.74,2.39-.69,4.92-1.39,7.31a2.67,2.67,0,0,1-2.73,2.09c-2.08-.56-2.64-1.23-2.6-3.33s.59-3.88.82-5.83a6.34,6.34,0,0,0,.19-.84c0-.57.19-1.23-.47-1.53s-1,.13-1.42.47c-1.08,1-2,2.07-3.11,3a3.49,3.49,0,0,1-.93.4c-1.22.33-2.42.36-3.28-.72a2.8,2.8,0,0,1-.07-3.36,1.92,1.92,0,0,0,.17-.39c.63-1.25,1.9-1.88,2.78-2.88,1.85-1.66,3.37-3.64,5.18-5.34,1.45-.86,2.14-2.41,3.21-3.62a14.77,14.77,0,0,0,2.23-2.69c1.57-2.34,3.43-4.47,5-6.8a7.61,7.61,0,0,0,.54-.85q1.22-2,2.6-3.81a15.9,15.9,0,0,0,1.3-1.53c1.87-2.64,3.51-5.43,5.36-8.08a5.34,5.34,0,0,0,.46-.89c.38-.84,0-1.22-.8-1.11a41.36,41.36,0,0,0-5,.56,36.4,36.4,0,0,1-6.18-.16c-3.28-.65-6.47-1.6-9-4a3.13,3.13,0,0,1,.7-4,2.92,2.92,0,0,1,3.56,0,18.42,18.42,0,0,0,13.08,2,8.47,8.47,0,0,0,3.1-.61c4.76-1.12,9-3.44,13.09-6A37.53,37.53,0,0,0,80,115.71a27.8,27.8,0,0,0,7-5.86c.4-.47,1-.91.73-1.59s-1-.52-1.65-.51c-4.74.06-9.49-.12-14.24.12-3.64.18-7.29,0-10.93-.15a42.86,42.86,0,0,0-14.28,1.93,26.11,26.11,0,0,0-12.86,7.57c-2.06,2-3.4,4.46-4.91,6.82a37.39,37.39,0,0,0-2.91,5.71c-1.18,1.38-2.29,1.75-3.59,1.19s-1.83-1.56-1.62-3.25c.89-2,2-4,2.88-6a22.71,22.71,0,0,0,1.52-3.14c.19-1.19,1-2.1,1.41-3.22.32-.93,0-1.12-.83-1.1-1.43,0-2.51.91-3.65,1.56a37,37,0,0,0-8.15,6.48,1.53,1.53,0,0,0-.38.6,32.3,32.3,0,0,0-3.81,5.33c-.45.48-.77,1.06-1.24,1.53-1.81,1.78-3.84,1.33-4.72-1.08-.22-1.61.67-2.87,1.37-4.16a12.9,12.9,0,0,0,.79-1.84,8.11,8.11,0,0,1,1.23-1.93,11.36,11.36,0,0,0,2.15-3.09,18.13,18.13,0,0,1,6.9-4.94c.91-.43,1.75-1,2.62-1.46a13.9,13.9,0,0,1,2.32-1.3,37.85,37.85,0,0,0,4.07-2.19,2.32,2.32,0,0,1,1.34-.58,25.66,25.66,0,0,1,5.7-1.71l.45-.12c3.92-.38,7.76-1.29,11.64-1.89a11.58,11.58,0,0,1,3.64-.61c5.07-.68,10.19-.61,15.27-1.12a49.1,49.1,0,0,1,6.3.1,63.84,63.84,0,0,1,8.18.39c.67.06,1.54.49,2.07-.41-1.12-1.09-2.65-1.37-4-2a1.3,1.3,0,0,1-.34-.15,2.27,2.27,0,0,0-1-.49,1.34,1.34,0,0,1-.31-.17,2.67,2.67,0,0,0-1-.44,1.5,1.5,0,0,1-.32-.19c-1.33-.91-2.83-1.56-4.15-2.49-3.43-2.53-7.07-4.76-10.12-7.77A31.82,31.82,0,0,0,55.15,85c-.46-.4-1-.75-1.16-1.4A10.62,10.62,0,0,0,51.48,80c-2.31-2.07-3.42-4.93-5-7.45a19.43,19.43,0,0,1-1.69-3.46,6.88,6.88,0,0,0-.51-1.3,1.85,1.85,0,0,1-.07-.41c-1-2.49-1.69-5.11-2.65-7.62-.47-.9-.63-1.92-1.09-2.83-.64-2.12-1.4-4.21-1.84-6.39a7.24,7.24,0,0,0-.45-1.89c-.17-.73-.69-1.35-.6-2.15-.7-2.49-1.33-5-1.84-7.51-.44-2.14-1-4.26-1.27-6.41-.27-2-.88-3.82-1.16-5.76a24.37,24.37,0,0,1-1-3.95c-.07-.79-.37-1.54-.4-2.34a3.31,3.31,0,0,1-.12-.42c-.28-1.58-.8-3.11-1.09-4.69a2.49,2.49,0,0,1,0-.47,62.83,62.83,0,0,1-1.3-7.82c0-.5,0-1,0-1.51a1.14,1.14,0,0,1,.3-.7c1.44-1.14,3.15-.78,4.72-.66a75.7,75.7,0,0,0,9-.15,5.7,5.7,0,0,1,1.43.06,2.64,2.64,0,0,1,1.55.75,1.14,1.14,0,0,1,.25.42c.75,3.52.91,7.16,2,10.61.59,2.32,1.11,4.65,1.58,7a17.55,17.55,0,0,0,.54,2.69,32.39,32.39,0,0,1,.9,4.57,4.81,4.81,0,0,0,.58,2.16,17.23,17.23,0,0,1,.66,4c.07.75.34,1.45.45,2.19-.07.71.39,1.25.61,1.86q1.05,4.39,2.3,8.71c.82,3.8,2.37,7.36,3.55,11a57.47,57.47,0,0,0,2.7,5.86c.75,1.73,2.38,2.75,3.42,4.21a35.67,35.67,0,0,0,4.37,4.89A23.05,23.05,0,0,0,75.44,79c1.15.74,1.85,2,3,2.63a2,2,0,0,0,.89.41,39.91,39.91,0,0,1,4.1,2C87,86,90.4,85.6,93.7,83.48c.57-.36,1.17-.64,1.74-1,.23,0,.48,0,.62-.28s.35-.14.51-.23c1.78-1,1.88-1.31.66-2.9A25.56,25.56,0,0,1,94,73c-1-2.48-2.46-4.75-3.42-7.25S89,61,88.08,58.57a3.77,3.77,0,0,1-.44-1.23,1.46,1.46,0,0,0-.07-.56A35.62,35.62,0,0,1,85,50a1.64,1.64,0,0,0-.31-.48c-.09-1.31-.91-2.39-1.19-3.65A5.8,5.8,0,0,1,82.81,44c-.66-2.51-1.4-5-1.87-7.55a1.8,1.8,0,0,1-.09-.45,30.63,30.63,0,0,1-.71-3.8,31.8,31.8,0,0,1-.55-3.63,9,9,0,0,0-.48-1.83,26,26,0,0,0-.77-4.21,55.33,55.33,0,0,1-1.22-10.8c0-1-.32-2-.3-3A2.55,2.55,0,0,1,78.38,6.1a7.53,7.53,0,0,1,4.36-.24c2.46.49,4.92,1,7.47.44a8.93,8.93,0,0,1,3.13.12c.56.2,1,.44,1.07,1.16,0,2.89.63,5.75.58,8.65.15,3,1.13,5.81,1.44,8.76a6.09,6.09,0,0,0,.37,1.09c.17,1.57.55,3.11.76,4.68.64,1.59.61,3.32,1.11,5,.37,1.2.69,2.43,1.13,3.62a.85.85,0,0,1,.09.44,79.56,79.56,0,0,0,4,11.12c.84,1.85,1.3,3.86,2,5.76a56,56,0,0,0,3.29,7.64c.7.29.75-.39,1-.71a8.8,8.8,0,0,1,.78-1.32c1.57-3.59,3.42-7.06,4.84-10.72.3-.76.46-1.56.69-2.34a.5.5,0,0,1,0-.24c.27-.65.29-1.38.57-2h0c1.37-3.64,1.5-7.46,1.62-11.29a40.1,40.1,0,0,1,.75-6.83c.15-.72,0-1.44.17-2.15-.07-3.46.58-6.89.48-10.34-.08-2.89.48-5.73.49-8.61a1.53,1.53,0,0,1,1.61-1.66,40,40,0,0,1,5.89-.22c3.26.26,6.53-.17,9.78.33a12.79,12.79,0,0,1,0,5.12c-.39,2.64.17,5.27-.23,7.88a72.17,72.17,0,0,0-.32,8.18c-.07,1.72-.43,3.41-.66,5.11a20.32,20.32,0,0,0-.36,2.55c0,3-.32,6-.55,9-.19,2.57-1.14,5-1.68,7.45-.7,1.49-.7,3.2-1.45,4.68-.89,2.11-1.71,4.26-2.62,6.36a21.69,21.69,0,0,1-1.76,3.86c-1.89,3.7-3.6,7.5-5.44,11.22-.11.22-.21.44-.32.65-1.27,2.42-1.27,2.42,1.07,3.93a8,8,0,0,0,.82.58h0c1.6,1.38,3.67,1.57,5.57,2.13a20.72,20.72,0,0,0,10.2.39,15.11,15.11,0,0,0,3.28-1.39c.66-.54,1.46-.85,2.16-1.32A21.3,21.3,0,0,0,152,77.4a1.76,1.76,0,0,1,.24-.3,2.93,2.93,0,0,0,1-1.77,17.42,17.42,0,0,1,1.92-4.24c.81-1.13,1.08-2.52,1.75-3.71a1.86,1.86,0,0,1,.19-.34,4.4,4.4,0,0,0,.59-1.26c.81-1.49.86-3.25,1.61-4.77.44-1.41,1.09-2.75,1.4-4.2.1-.47.33-.9.42-1.37.29-.47.77-.87.57-1.52a2.73,2.73,0,0,1,0-.57c.1-.16.24-.3.33-.47a5,5,0,0,0,.49-1.47,10.28,10.28,0,0,1,.59-2.37,21.28,21.28,0,0,1,1.15-3.49,1.41,1.41,0,0,1,.07-.41c.16-.54.3-1.09.49-1.62a62.93,62.93,0,0,0,1.8-8.9c.08-.37.09-.75.15-1.12a3.41,3.41,0,0,0,.55-1.61,4.17,4.17,0,0,0,.15-1.06,4.83,4.83,0,0,0,.46-1.67,9.22,9.22,0,0,0,.09-1.82c0-.47,0-.94,0-1.41.23-.94.3-1.9.54-2.84.63-4.44.07-8.89,0-13.33A12.12,12.12,0,0,1,169,6.07c.15-.55.34-1,.94-1.14a16.36,16.36,0,0,1,6,.27,48.51,48.51,0,0,0,8,.9c1.53,0,1.86.27,2.16,1.73a11.09,11.09,0,0,1,.26,2.43c-.05,4.75.27,9.51-.21,14.25a11.29,11.29,0,0,1-.47,2.24c-.41,3.54-1.15,7-1.76,10.54a9.83,9.83,0,0,0-.57,3.4,5.27,5.27,0,0,0-.58,2.52,1.15,1.15,0,0,1-.08.41c-.22,1.05-.51,2.09-.7,3.14-.91,3.3-1.9,6.56-2.85,9.84-.14.47-.55.83-.57,1.35a15.69,15.69,0,0,1-.7,2.52,1.21,1.21,0,0,1-.06.38,6.3,6.3,0,0,0-.42,1.27,1.61,1.61,0,0,1-.15.36,22.64,22.64,0,0,0-1,2.55c-.43,1.66-.94,3.29-1.38,4.94a1.75,1.75,0,0,1-.09.38,3.53,3.53,0,0,0-.56,1.55,3.07,3.07,0,0,1-.17.31,3.89,3.89,0,0,0-.47,1.18c0,.58-.57.87-.68,1.39a67,67,0,0,0-3.08,6.6,3.37,3.37,0,0,1-.58,1.13,27.82,27.82,0,0,1-4.32,6.26,11.8,11.8,0,0,1-1.2,1.54c-.51.49-1,1-1.5,1.49s-.81,1-1.46,1.22a6.9,6.9,0,0,0-1.92,1.52c-1.64,1-3.13,2.26-4.7,3.39a5.82,5.82,0,0,1-1.63,1c-1.85.67-3.51,1.74-5.33,2.45a28.66,28.66,0,0,1-6.79,1.52,46,46,0,0,1-8.85.19.32.32,0,0,0-.26.09c-.08.07-.07.16,0,.25a20.76,20.76,0,0,0,7.15,2.47c4.8,1.24,9.53.72,14.24-.46a41.18,41.18,0,0,0,6.21-2,40.18,40.18,0,0,1,4.69-1.67,39.2,39.2,0,0,0,8.38-4.94c1.61-1.12,3.15-2.35,4.87-3.31,2.41-1.37,4.56-3.13,6.86-4.65a41.48,41.48,0,0,1,10.85-5.07c1.09-.36,2.16-.77,3.24-1.18,2.2-1.13,4.22-.46,6.22.6.81.43,1.56,1,1.56,1.89s-.86,1.52-1.77,1.82c-1.91.49-3.8,1.06-5.69,1.65l-1.75.74a16.24,16.24,0,0,0-3.52,1.26l-.34.18a8.8,8.8,0,0,0-1.21.45,1.92,1.92,0,0,1-.31.18l-.83.38a3.18,3.18,0,0,1-.32.16,8.8,8.8,0,0,0-1,.42,2.53,2.53,0,0,1-.36.12,36.6,36.6,0,0,0-6,4.27,87.92,87.92,0,0,1-7.78,6c-.31.21-.6.44-.92.65-.75.31-1.33.92-2.11,1.19-1.37.6-2.65,1.38-4,2-.84.48-1.8.71-2.66,1.17-1.14.33-2.24.77-3.36,1.17a29.52,29.52,0,0,0-5.06,1.86,1.94,1.94,0,0,1-.57.57c-.53.77-.47.85.88,1.08a4.33,4.33,0,0,0,2.11.26,23,23,0,0,1,4.68.63c4.37.48,8.73,1,13.11,1.46a76.68,76.68,0,0,0,11,.2,27.17,27.17,0,0,0,5.76-1.06c1.62-.89,3.51-1.23,5-2.36.57-.26,1.1-.59,1.65-.89,1.59-.88,2.71-.81,3.78.26s1.06,2.24.14,3.81a2.22,2.22,0,0,1-.25.35c-1.19,1.37-3.05,1.66-4.43,2.73-.61.46-1.36.66-2,1.11-.91.66-.9,1,.1,1.47,2.45,1.26,5.05,2.19,7.59,3.24a5,5,0,0,1,1.11.61c2.23,1.21,4.61,2,6.94,3,1.56.66,1.91,1.88,2.05,3.29s-1,1.8-2,2.28c-1.36.45-2.48-.23-3.62-.79-1-.58-2-1-3-1.48-1.33-.76-2.81-1.21-4.15-2a3.26,3.26,0,0,0-1.52-.64c-2.11-.6-4.15-1.36-6.24-2a88.15,88.15,0,0,0-8.72-2.31c-1-.19-1.89-.75-2.94-.62a17.82,17.82,0,0,0-2.51-.55,30.91,30.91,0,0,1-5.06-.85c-3.66-.63-7.33-1.18-11-1.88-2.89-.55-5.82-1-8.7-1.61-.79-.22-1.6-.3-2.4-.47l-.41-.13a5.91,5.91,0,0,0-1.81-.43l-.61-.18a23,23,0,0,0-3-.69c-2-.6-4.15-.93-6.19-1.57a4.93,4.93,0,0,0-2.53,0c-.38.74.21,1.25.51,1.75.52.89,1.06,1.78,1.6,2.66a5.69,5.69,0,0,0,1.43,2.31c2.11,2.89,4.1,5.88,7.06,8a2.87,2.87,0,0,0,.59.39c3.41,2.84,7,5.42,10.66,7.93,1.57,1.08,3.15,2.14,4.68,3.27a33.48,33.48,0,0,0,4.76,2.88,2.58,2.58,0,0,1,1.07.54,6.72,6.72,0,0,0,2,1.12,34.66,34.66,0,0,1,4.88,2.71c2.4,1,4.65,2.33,7.2,2.94.78.22,1.54.53,2.33.76a39.65,39.65,0,0,0,8.21,1.76,10,10,0,0,1,3.6.84c1.56,1.86,1.71,2.81.69,4.15a2.26,2.26,0,0,1-2.06,1.06c-1-.09-2,.08-3-.09A1.82,1.82,0,0,0,193.32,159.28Z" transform="translate(-3.71 -4.11)"/></svg>