<svg xmlns="http://www.w3.org/2000/svg" xmlns:xlink="http://www.w3.org/1999/xlink" viewBox="0 0 500 500"><defs><style>.a{clip-path:url(#b);}.b{fill:none;stroke-linejoin:round;}.c,.d{stroke:none;}.d{fill:#fff;}</style><clipPath id="b"><rect width="500" height="500"/></clipPath></defs><g id="a" class="a"><g class="b" transform="translate(449) rotate(90)"><path class="c" d="M225.018,37.573a30,30,0,0,1,49.964,0L469.009,329.39c13.257,19.939-1.038,46.61-24.982,46.61H55.973c-23.944,0-38.239-26.671-24.982-46.61Z"/><path class="d" d="M 249.9999389648438 144.4883117675781 L 149.2608642578125 296 L 350.7389526367188 296 L 249.9999389648438 144.4883117675781 M 249.9999847412109 24.18319702148438 C 259.5234069824219 24.18319702148438 269.0468444824219 28.64642333984375 274.9819946289062 37.57284545898438 L 469.0089721679688 329.3897094726562 C 482.2664184570312 349.3287048339844 467.9712829589844 376 444.0271301269531 376 L 55.97283935546875 376 C 32.0286865234375 376 17.73355102539062 349.3287048339844 30.9908447265625 329.3897094726562 L 225.0179748535156 37.57284545898438 C 230.953125 28.64642333984375 240.4765625 24.18319702148438 249.9999847412109 24.18319702148438 Z"/></g></g></svg>